<svg width="178" height="60" viewBox="0 0 178 60" fill="none" xmlns="http://www.w3.org/2000/svg">
<g clip-path="url(#clip0_502_10)">
<path d="M3.43075 27.9776C3.1664 26.4651 28.6643 2.02213 29.7251 2.44541C30.786 2.86868 25.1522 24.929 25.1522 26.8344C25.1522 28.7398 33.917 32.1695 33.917 34.456C33.917 36.7425 9.90908 59.9882 7.62262 59.9882C5.33615 59.9882 13.5895 37.6094 11.8145 35.2181C10.0395 32.8269 3.69511 29.4901 3.43075 27.9776Z" fill="#130C18" stroke="#130C18" stroke-width="0.762157"/>
<path d="M0.00204132 25.5495C-0.262315 24.037 25.2355 -0.406032 26.2964 0.0172439C27.3573 0.44052 21.7235 22.5009 21.7235 24.4062C21.7235 26.3116 30.4883 29.7413 30.4883 32.0278C30.4883 34.3143 6.48037 57.5601 4.1939 57.5601C1.90744 57.56 10.1608 35.1812 8.38576 32.79C6.61076 30.3987 0.266397 27.062 0.00204132 25.5495Z" fill="#8840B5" stroke="#8840B5" stroke-width="0.762157"/>
<path d="M11.1797 32.5084V25.7337C11.1797 25.1751 11.1797 24.8954 11.2972 24.7301C11.3998 24.5859 11.558 24.4912 11.7336 24.4685C11.9347 24.4426 12.1813 24.5741 12.6739 24.8368L19.0251 28.2242L19.0275 28.2252C19.5718 28.5155 19.8441 28.6608 19.9334 28.8543C20.0114 29.0232 20.0114 29.2181 19.9334 29.3869C19.844 29.5808 19.571 29.7266 19.0251 30.0177L12.6739 33.4051C12.1809 33.668 11.9347 33.799 11.7336 33.7731C11.558 33.7504 11.3998 33.6558 11.2972 33.5115C11.1797 33.3462 11.1797 33.0671 11.1797 32.5084Z" fill="white" stroke="white" stroke-width="1.27026" stroke-linecap="round" stroke-linejoin="round"/>
<path d="M51.5995 35.238C52.697 35.238 53.4795 35.0449 53.947 34.6587C54.4348 34.2522 54.6786 33.7746 54.6786 33.2259C54.6786 32.7178 54.4856 32.3113 54.0994 32.0064C53.7336 31.6812 53.1848 31.4069 52.4531 31.1833L50.8374 30.665C49.7399 30.2992 48.7643 29.8927 47.9107 29.4456C47.0774 28.9984 46.427 28.4192 45.9596 27.7079C45.5124 26.9965 45.2889 26.0921 45.2889 24.9946C45.2889 23.3077 45.9291 21.9663 47.2095 20.9704C48.4899 19.9745 50.2683 19.4766 52.5446 19.4766C53.7031 19.4766 54.7295 19.5884 55.6237 19.8119C56.5383 20.0355 57.2497 20.3708 57.7578 20.818C58.2862 21.2448 58.5504 21.7732 58.5504 22.4033C58.5504 22.8707 58.4386 23.2772 58.2151 23.6227C58.0118 23.9479 57.7476 24.2324 57.4224 24.4763C56.955 24.1511 56.3351 23.8768 55.5627 23.6532C54.7904 23.4093 53.9368 23.2874 53.0019 23.2874C52.0263 23.2874 51.2947 23.4499 50.8069 23.7751C50.3191 24.08 50.0752 24.4865 50.0752 24.9946C50.0752 25.4011 50.2378 25.7364 50.563 26.0006C50.8882 26.2445 51.376 26.4681 52.0263 26.6713L53.7031 27.1896C55.5526 27.7587 56.9753 28.5208 57.9712 29.4761C58.967 30.411 59.465 31.6711 59.465 33.2564C59.465 34.9636 58.8045 36.3558 57.4834 37.433C56.1623 38.4898 54.2518 39.0183 51.752 39.0183C50.5122 39.0183 49.4045 38.8862 48.429 38.6219C47.4534 38.3577 46.6709 37.9716 46.0815 37.4635C45.5124 36.9554 45.2279 36.366 45.2279 35.6953C45.2279 35.1668 45.3803 34.7197 45.6852 34.3539C46.0104 33.9677 46.3661 33.6832 46.7522 33.5003C47.301 33.9474 47.9818 34.3539 48.7948 34.7197C49.6281 35.0652 50.563 35.238 51.5995 35.238ZM76.3222 32.2808H71.7798V29.5675C71.7798 28.6326 71.5359 27.9721 71.0481 27.5859C70.5806 27.1794 69.9811 26.9762 69.2494 26.9762C68.599 26.9762 68.0096 27.0981 67.4812 27.342C66.9731 27.5859 66.5361 27.8603 66.1703 28.1652L66.0484 24.5068C66.5158 24.2426 67.0951 23.9987 67.7861 23.7751C68.4771 23.5312 69.2393 23.4093 70.0725 23.4093C72.0033 23.4093 73.5277 23.9072 74.6455 24.9031C75.7633 25.8787 76.3222 27.3522 76.3222 29.3236V32.2808ZM62.329 30.4516H66.841V38.4695C66.6378 38.5305 66.3532 38.5813 65.9874 38.6219C65.6215 38.6829 65.2252 38.7134 64.7984 38.7134C63.9448 38.7134 63.3148 38.561 62.9083 38.2561C62.5221 37.9512 62.329 37.4025 62.329 36.6099V30.4516ZM71.7798 30.4516H76.3222V38.4695C76.119 38.5305 75.8344 38.5813 75.4686 38.6219C75.1028 38.6829 74.7065 38.7134 74.2796 38.7134C73.4057 38.7134 72.7655 38.561 72.359 38.2561C71.9729 37.9512 71.7798 37.4025 71.7798 36.6099V30.4516ZM66.841 32.7991H62.329V18.6534C62.5119 18.5925 62.7863 18.5315 63.1522 18.4705C63.518 18.4095 63.9143 18.3791 64.3411 18.3791C65.2151 18.3791 65.8451 18.5315 66.2313 18.8364C66.6378 19.1412 66.841 19.7001 66.841 20.5131V32.7991ZM94.649 31.1833C94.649 32.7686 94.3238 34.1506 93.6734 35.3294C93.0434 36.4879 92.1491 37.3822 90.9906 38.0122C89.8322 38.6423 88.4704 38.9573 86.9055 38.9573C85.3608 38.9573 83.9991 38.6524 82.8203 38.0427C81.6618 37.4127 80.7574 36.5184 80.107 35.3599C79.477 34.1811 79.162 32.7889 79.162 31.1833C79.162 29.5777 79.4872 28.2058 80.1375 27.0676C80.7879 25.9092 81.6923 25.0149 82.8508 24.3849C84.0296 23.7345 85.3812 23.4093 86.9055 23.4093C88.4501 23.4093 89.8017 23.7345 90.9602 24.3849C92.1186 25.0149 93.0231 25.9193 93.6734 27.0981C94.3238 28.2566 94.649 29.6183 94.649 31.1833ZM86.9055 26.9762C85.9503 26.9762 85.1881 27.342 84.619 28.0737C84.0703 28.8054 83.7959 29.8419 83.7959 31.1833C83.7959 32.545 84.0703 33.5917 84.619 34.3234C85.1678 35.0347 85.9299 35.3904 86.9055 35.3904C87.881 35.3904 88.6432 35.0246 89.192 34.2929C89.7407 33.5612 90.0151 32.5247 90.0151 31.1833C90.0151 29.8622 89.7407 28.8359 89.192 28.1042C88.6432 27.3522 87.881 26.9762 86.9055 26.9762ZM102 27.7993V31.6101H97.488V27.2506C97.488 26.6815 97.6201 26.2039 97.8844 25.8177C98.1689 25.4112 98.5551 25.0556 99.0428 24.7507C99.7135 24.3442 100.516 24.0292 101.451 23.8056C102.406 23.5617 103.402 23.4398 104.439 23.4398C106.512 23.4398 107.549 24.1308 107.549 25.5128C107.549 25.838 107.498 26.1429 107.396 26.4274C107.315 26.712 107.213 26.9559 107.091 27.1591C106.888 27.1185 106.634 27.088 106.329 27.0676C106.045 27.027 105.729 27.0067 105.384 27.0067C104.774 27.0067 104.165 27.0778 103.555 27.2201C102.945 27.3624 102.427 27.5554 102 27.7993ZM97.488 30.4516L102 30.5431V38.4695C101.797 38.5305 101.512 38.5813 101.146 38.6219C100.781 38.6829 100.384 38.7134 99.9574 38.7134C99.1038 38.7134 98.4738 38.561 98.0673 38.2561C97.6811 37.9512 97.488 37.4025 97.488 36.6099V30.4516ZM109.844 30.4516H114.326V33.7137C114.326 34.2827 114.508 34.6994 114.874 34.9636C115.24 35.2278 115.758 35.3599 116.429 35.3599C116.734 35.3599 117.059 35.3294 117.405 35.2685C117.77 35.1872 118.075 35.0957 118.319 34.9941C118.482 35.177 118.624 35.4006 118.746 35.6648C118.888 35.929 118.959 36.2339 118.959 36.5794C118.959 37.2704 118.675 37.8395 118.106 38.2866C117.537 38.7337 116.581 38.9573 115.24 38.9573C113.533 38.9573 112.202 38.5711 111.246 37.7988C110.311 37.0265 109.844 35.7664 109.844 34.0185V30.4516ZM112.71 27.6774V24.2019H118.563C118.665 24.3645 118.766 24.5983 118.868 24.9031C118.97 25.208 119.02 25.5433 119.02 25.9092C119.02 26.5189 118.878 26.966 118.594 27.2506C118.329 27.5351 117.964 27.6774 117.496 27.6774H112.71ZM114.326 31.2138H109.844V20.2692C110.047 20.2082 110.332 20.1473 110.698 20.0863C111.063 20.005 111.45 19.9643 111.856 19.9643C112.73 19.9643 113.36 20.1168 113.746 20.4216C114.132 20.7265 114.326 21.2854 114.326 22.0984V31.2138ZM121.574 30.4516H126.056V33.7137C126.056 34.2827 126.238 34.6994 126.604 34.9636C126.97 35.2278 127.488 35.3599 128.159 35.3599C128.464 35.3599 128.789 35.3294 129.135 35.2685C129.501 35.1872 129.805 35.0957 130.049 34.9941C130.212 35.177 130.354 35.4006 130.476 35.6648C130.618 35.929 130.689 36.2339 130.689 36.5794C130.689 37.2704 130.405 37.8395 129.836 38.2866C129.267 38.7337 128.312 38.9573 126.97 38.9573C125.263 38.9573 123.932 38.5711 122.976 37.7988C122.042 37.0265 121.574 35.7664 121.574 34.0185V30.4516ZM124.44 27.6774V24.2019H130.293C130.395 24.3645 130.496 24.5983 130.598 24.9031C130.7 25.208 130.75 25.5433 130.75 25.9092C130.75 26.5189 130.608 26.966 130.324 27.2506C130.059 27.5351 129.694 27.6774 129.226 27.6774H124.44ZM126.056 31.2138H121.574V20.2692C121.777 20.2082 122.062 20.1473 122.428 20.0863C122.794 20.005 123.18 19.9643 123.586 19.9643C124.46 19.9643 125.09 20.1168 125.476 20.4216C125.862 20.7265 126.056 21.2854 126.056 22.0984V31.2138ZM145.371 34.2319C145.371 35.7156 144.812 36.8842 143.694 37.7378C142.576 38.5711 140.95 38.9878 138.816 38.9878C137.15 38.9878 135.778 38.7439 134.701 38.2561C133.624 37.7683 133.085 37.0468 133.085 36.0916C133.085 35.6648 133.176 35.2989 133.359 34.9941C133.542 34.6689 133.776 34.4148 134.061 34.2319C134.63 34.5571 135.29 34.862 136.042 35.1465C136.815 35.4107 137.688 35.5428 138.664 35.5428C140.148 35.5428 140.89 35.116 140.89 34.2624C140.89 33.8966 140.757 33.612 140.493 33.4088C140.229 33.1852 139.792 33.0226 139.182 32.921L137.902 32.6162C136.276 32.2706 135.056 31.7422 134.244 31.0309C133.451 30.2992 133.055 29.3033 133.055 28.0432C133.055 26.6205 133.624 25.4925 134.762 24.6592C135.92 23.8056 137.475 23.3788 139.426 23.3788C140.402 23.3788 141.286 23.4804 142.078 23.6837C142.891 23.8666 143.532 24.1613 143.999 24.5678C144.467 24.9539 144.7 25.4417 144.7 26.0311C144.7 26.4376 144.619 26.7933 144.456 27.0981C144.294 27.403 144.08 27.6571 143.816 27.8603C143.593 27.718 143.247 27.5656 142.78 27.403C142.333 27.2404 141.835 27.1083 141.286 27.0067C140.757 26.9051 140.259 26.8542 139.792 26.8542C139.06 26.8542 138.491 26.9559 138.085 27.1591C137.678 27.342 137.475 27.6367 137.475 28.0432C137.475 28.3074 137.587 28.5412 137.81 28.7444C138.054 28.9273 138.471 29.0797 139.06 29.2017L140.28 29.5066C142.089 29.913 143.389 30.5024 144.182 31.2748C144.975 32.0267 145.371 33.0125 145.371 34.2319Z" fill="#130C18"/>
<path d="M147.24 36.305C147.24 35.553 147.474 34.9229 147.941 34.4148C148.429 33.8864 149.069 33.6222 149.862 33.6222C150.675 33.6222 151.315 33.8864 151.782 34.4148C152.27 34.9229 152.514 35.553 152.514 36.305C152.514 37.057 152.27 37.6972 151.782 38.2256C151.315 38.7337 150.675 38.9878 149.862 38.9878C149.069 38.9878 148.429 38.7337 147.941 38.2256C147.474 37.6972 147.24 37.057 147.24 36.305ZM161.013 35.6038C161.48 35.6038 161.938 35.5632 162.385 35.4819C162.852 35.3802 163.188 35.2685 163.391 35.1465V32.2198L160.83 32.4637C160.139 32.5044 159.59 32.6466 159.184 32.8905C158.777 33.1344 158.574 33.5003 158.574 33.988C158.574 34.4758 158.767 34.8721 159.153 35.177C159.539 35.4615 160.159 35.6038 161.013 35.6038ZM160.83 23.4093C162.944 23.4093 164.631 23.8564 165.891 24.7507C167.151 25.6246 167.781 26.9864 167.781 28.8359V35.7562C167.781 36.2643 167.649 36.681 167.384 37.0062C167.12 37.311 166.785 37.5752 166.378 37.7988C165.769 38.1647 165.007 38.4492 164.092 38.6524C163.198 38.876 162.171 38.9878 161.013 38.9878C158.94 38.9878 157.283 38.5813 156.044 37.7683C154.824 36.9554 154.214 35.7461 154.214 34.1405C154.214 32.7584 154.641 31.7016 155.495 30.9699C156.348 30.2179 157.619 29.7606 159.306 29.598L163.36 29.1712V28.8054C163.36 28.1143 163.086 27.6164 162.537 27.3115C162.009 27.0067 161.247 26.8542 160.251 26.8542C159.478 26.8542 158.716 26.9457 157.964 27.1286C157.233 27.3115 156.572 27.5249 155.983 27.7688C155.739 27.6062 155.525 27.3623 155.342 27.0372C155.18 26.6917 155.099 26.336 155.099 25.9701C155.099 25.1165 155.566 24.4966 156.501 24.1105C157.09 23.8666 157.771 23.6938 158.543 23.5922C159.336 23.4703 160.098 23.4093 160.83 23.4093ZM171.11 19.6595C171.11 18.9685 171.344 18.3892 171.811 17.9218C172.299 17.4543 172.909 17.2206 173.64 17.2206C174.392 17.2206 175.002 17.4543 175.47 17.9218C175.937 18.3892 176.171 18.9685 176.171 19.6595C176.171 20.3302 175.937 20.9094 175.47 21.3972C175.002 21.885 174.392 22.1289 173.64 22.1289C172.909 22.1289 172.299 21.885 171.811 21.3972C171.344 20.9094 171.11 20.3302 171.11 19.6595ZM171.384 30.4516H175.896V38.4695C175.713 38.5305 175.439 38.5813 175.073 38.6219C174.707 38.6829 174.311 38.7134 173.884 38.7134C173.01 38.7134 172.37 38.561 171.964 38.2561C171.577 37.9512 171.384 37.4025 171.384 36.6099V30.4516ZM175.896 32.7991H171.384V24.0495C171.567 23.9885 171.842 23.9276 172.207 23.8666C172.594 23.8056 173 23.7751 173.427 23.7751C174.301 23.7751 174.931 23.9276 175.317 24.2324C175.703 24.517 175.896 25.0759 175.896 25.9092V32.7991Z" fill="#8840B5"/>
</g>
<defs>
<clipPath id="clip0_502_10">
<rect width="177.917" height="59.9764" fill="white" transform="translate(0 0.0118103)"/>
</clipPath>
</defs>
</svg>
