<svg width="649" height="713" viewBox="0 0 649 713" fill="none" xmlns="http://www.w3.org/2000/svg">
<g clip-path="url(#clip0_471_28)">
<path d="M622.097 320.691C661.597 549.5 118.097 858.691 41.0966 634.191C19.5967 535 117.097 508.648 117.097 398.191C117.097 287.734 79.5965 55.6913 238.097 5.69131C322.597 -17.1649 343.097 46.6913 427.597 116.691C498.597 199.691 609.807 249.5 622.097 320.691Z" fill="url(#paint0_linear_471_28)"/>
<path d="M75 431.66C75 452.371 58.2107 469.16 37.5 469.16C16.7893 469.16 0 452.371 0 431.66C0 410.95 37.7893 369.16 58.5 369.16C79.2107 369.16 75 410.95 75 431.66Z" fill="#B182CE"/>
<path d="M647 105.973C656.5 151.66 627.114 181.973 599.5 181.973C571.886 181.973 539.5 147.473 559 105.973C577.5 73.6604 509.708 49.9378 533.5 33.4729C545 25.5144 634.117 44.0144 647 105.973Z" fill="#B182CE" fill-opacity="0.5"/>
<path d="M439.871 652.333C446.574 664.404 438.432 685.159 426.361 691.862C414.29 698.564 399.314 694.65 392.611 682.578C385.909 670.507 394.144 662.282 406.215 655.58C418.286 648.877 433.168 640.262 439.871 652.333Z" fill="#B182CE" fill-opacity="0.75"/>
<rect x="304.403" y="63" width="265.603" height="534.097" rx="30" transform="rotate(21 304.403 63)" fill="#130C18"/>
<rect x="307.467" y="91.963" width="240.194" height="483.003" rx="17" transform="rotate(21 307.467 91.963)" fill="#EFE7F4"/>
<path d="M328.668 297.932C329.27 294.858 395.709 266.943 397.42 268.525C399.131 270.107 372.271 308.007 370.878 311.636C369.484 315.266 383.671 328.207 382 332.562C380.328 336.917 317.602 363.641 313.247 361.969C308.892 360.298 340.975 323.706 339.342 317.853C337.71 312.001 328.065 301.006 328.668 297.932Z" fill="#130C18" stroke="#130C18" stroke-width="1.55501"/>
<path d="M323.081 290.791C323.683 287.716 390.122 259.802 391.833 261.383C393.545 262.965 366.684 300.866 365.291 304.495C363.897 308.124 378.085 321.066 376.413 325.421C374.741 329.776 312.015 356.5 307.66 354.828C303.305 353.156 335.388 316.564 333.756 310.712C332.123 304.859 322.478 293.865 323.081 290.791Z" fill="#8840B5" stroke="#8840B5" stroke-width="1.55501"/>
<path d="M340.114 312.227L345.068 299.323C345.476 298.259 345.681 297.727 346.025 297.498C346.326 297.298 346.697 297.233 347.048 297.318C347.45 297.416 347.823 297.847 348.57 298.707L358.19 309.803L358.194 309.807C359.019 310.758 359.431 311.234 359.46 311.668C359.485 312.046 359.342 312.418 359.07 312.682C358.758 312.986 358.132 313.064 356.879 313.22L342.305 315.028C341.174 315.168 340.609 315.238 340.245 315.041C339.927 314.87 339.695 314.574 339.605 314.224C339.502 313.823 339.706 313.292 340.114 312.227Z" fill="white" stroke="white" stroke-width="2.59168" stroke-linecap="round" stroke-linejoin="round"/>
<path d="M258.216 384.814C259.172 385.181 259.918 385.275 260.454 385.095C261.015 384.904 261.387 384.569 261.57 384.091C261.74 383.649 261.708 383.23 261.474 382.836C261.264 382.43 260.877 382.008 260.315 381.568L259.081 380.577C258.247 379.891 257.533 379.211 256.939 378.536C256.363 377.868 255.99 377.146 255.821 376.37C255.669 375.601 255.777 374.738 256.144 373.782C256.708 372.313 257.714 371.359 259.162 370.92C260.61 370.48 262.326 370.641 264.309 371.402C265.318 371.79 266.174 372.23 266.878 372.724C267.6 373.224 268.108 373.754 268.401 374.314C268.718 374.862 268.772 375.411 268.561 375.959C268.405 376.367 268.172 376.683 267.861 376.909C267.576 377.125 267.25 377.284 266.886 377.388C266.587 376.948 266.139 376.502 265.541 376.049C264.95 375.579 264.247 375.187 263.433 374.874C262.583 374.548 261.891 374.445 261.358 374.565C260.831 374.668 260.483 374.94 260.313 375.383C260.177 375.737 260.206 376.083 260.401 376.422C260.603 376.743 260.953 377.101 261.452 377.496L262.739 378.508C264.159 379.622 265.144 380.761 265.692 381.926C266.247 383.073 266.259 384.337 265.729 385.718C265.158 387.205 264.117 388.197 262.607 388.694C261.103 389.172 259.262 388.994 257.085 388.158C256.005 387.744 255.084 387.258 254.323 386.702C253.561 386.145 253.009 385.548 252.665 384.908C252.34 384.275 252.289 383.667 252.513 383.082C252.69 382.622 252.972 382.284 253.36 382.067C253.772 381.839 254.177 381.71 254.575 381.68C254.903 382.253 255.36 382.835 255.946 383.425C256.556 384.005 257.313 384.468 258.216 384.814ZM280.738 390.505L276.781 388.986L277.689 386.623C278.001 385.808 278.01 385.151 277.714 384.652C277.443 384.142 276.988 383.764 276.351 383.52C275.785 383.302 275.23 383.211 274.689 383.247C274.164 383.29 273.692 383.382 273.272 383.526L274.389 380.298C274.884 380.225 275.47 380.206 276.147 380.242C276.83 380.261 277.535 380.409 278.261 380.688C279.942 381.334 281.103 382.277 281.744 383.518C282.392 384.742 282.386 386.212 281.727 387.929L280.738 390.505ZM269.161 384.233L273.091 385.741L270.411 392.725C270.213 392.71 269.948 392.659 269.616 392.572C269.277 392.503 268.922 392.397 268.55 392.254C267.806 391.969 267.309 391.626 267.056 391.224C266.822 390.83 266.837 390.287 267.102 389.597L269.161 384.233ZM277.393 387.393L281.349 388.911L278.669 395.895C278.471 395.88 278.206 395.829 277.874 395.742C277.535 395.673 277.18 395.567 276.808 395.424C276.047 395.132 275.54 394.785 275.288 394.384C275.054 393.989 275.069 393.447 275.334 392.756L277.393 387.393ZM272.306 387.786L268.377 386.277L273.106 373.957C273.286 373.965 273.545 374.003 273.884 374.073C274.223 374.142 274.579 374.248 274.95 374.39C275.711 374.683 276.209 375.026 276.444 375.421C276.696 375.822 276.686 376.377 276.414 377.085L272.306 387.786ZM297.067 395.676C296.537 397.057 295.792 398.152 294.831 398.961C293.895 399.76 292.817 400.24 291.598 400.401C290.378 400.562 289.087 400.382 287.724 399.858C286.378 399.342 285.294 398.621 284.471 397.696C283.673 396.76 283.184 395.678 283.005 394.452C282.85 393.215 283.041 391.897 283.578 390.498C284.115 389.1 284.857 388.013 285.804 387.24C286.758 386.448 287.845 385.972 289.064 385.81C290.308 385.638 291.594 385.806 292.922 386.316C294.267 386.832 295.336 387.568 296.127 388.521C296.926 389.458 297.411 390.548 297.584 391.792C297.763 393.018 297.591 394.313 297.067 395.676ZM291.729 389.423C290.897 389.103 290.111 389.167 289.371 389.614C288.648 390.068 288.063 390.879 287.614 392.047C287.159 393.234 287.048 394.237 287.281 395.058C287.522 395.861 288.066 396.425 288.916 396.752C289.766 397.078 290.552 397.014 291.275 396.56C291.997 396.106 292.583 395.295 293.031 394.127C293.473 392.976 293.577 391.99 293.344 391.17C293.117 390.331 292.579 389.749 291.729 389.423ZM304.602 395.187L303.327 398.506L299.397 396.997L300.855 393.2C301.045 392.704 301.32 392.332 301.679 392.084C302.063 391.826 302.518 391.645 303.045 391.542C303.765 391.413 304.57 391.407 305.459 391.525C306.372 391.631 307.281 391.858 308.183 392.205C309.989 392.898 310.661 393.846 310.199 395.05C310.09 395.333 309.944 395.582 309.76 395.796C309.594 396.016 309.424 396.195 309.25 396.331C309.087 396.228 308.875 396.116 308.617 395.997C308.383 395.866 308.115 395.743 307.814 395.628C307.283 395.424 306.728 395.282 306.149 395.202C305.571 395.122 305.055 395.117 304.602 395.187ZM299.785 395.988L303.684 397.576L301.034 404.48C300.837 404.465 300.572 404.415 300.24 404.328C299.9 404.258 299.545 404.152 299.173 404.01C298.43 403.724 297.932 403.381 297.68 402.979C297.446 402.585 297.461 402.042 297.726 401.352L299.785 395.988ZM310.547 400.119L314.45 401.618L313.36 404.459C313.169 404.955 313.189 405.379 313.42 405.731C313.65 406.083 314.057 406.372 314.641 406.596C314.907 406.698 315.2 406.78 315.522 406.843C315.867 406.894 316.164 406.916 316.41 406.909C316.49 407.123 316.54 407.365 316.557 407.636C316.593 407.914 316.553 408.203 316.438 408.504C316.207 409.106 315.768 409.507 315.123 409.706C314.478 409.905 313.571 409.78 312.403 409.332C310.916 408.761 309.886 407.98 309.312 406.988C308.756 406.002 308.77 404.748 309.354 403.226L310.547 400.119ZM313.97 398.661L315.132 395.634L320.231 397.591C320.265 397.767 320.275 398.004 320.262 398.304C320.248 398.603 320.181 398.912 320.058 399.231C319.854 399.762 319.581 400.104 319.238 400.257C318.913 400.416 318.547 400.418 318.139 400.261L313.97 398.661ZM314.195 402.281L310.292 400.783L313.951 391.25C314.149 391.265 314.417 391.307 314.756 391.376C315.102 391.428 315.452 391.522 315.806 391.658C316.567 391.95 317.065 392.293 317.299 392.688C317.534 393.083 317.515 393.634 317.243 394.342L314.195 402.281ZM320.764 404.041L324.667 405.54L323.576 408.381C323.386 408.876 323.406 409.3 323.637 409.653C323.867 410.005 324.274 410.294 324.858 410.518C325.124 410.62 325.417 410.702 325.739 410.764C326.084 410.816 326.38 410.838 326.627 410.831C326.707 411.045 326.756 411.287 326.774 411.558C326.81 411.836 326.77 412.125 326.654 412.426C326.423 413.028 325.985 413.429 325.34 413.628C324.695 413.827 323.788 413.702 322.62 413.254C321.133 412.683 320.102 411.902 319.529 410.909C318.973 409.924 318.987 408.67 319.571 407.148L320.764 404.041ZM324.187 402.583L325.349 399.556L330.448 401.513C330.482 401.688 330.492 401.926 330.479 402.226C330.465 402.525 330.397 402.834 330.275 403.153C330.071 403.684 329.798 404.026 329.455 404.178C329.13 404.338 328.763 404.34 328.356 404.183L324.187 402.583ZM324.412 406.203L320.509 404.705L324.168 395.172C324.366 395.187 324.634 395.229 324.973 395.298C325.319 395.35 325.669 395.444 326.023 395.579C326.784 395.872 327.282 396.215 327.516 396.61C327.75 397.004 327.732 397.556 327.46 398.264L324.412 406.203ZM340.227 415.29C339.731 416.582 338.853 417.413 337.594 417.783C336.342 418.135 334.787 417.955 332.928 417.241C331.476 416.684 330.363 416.013 329.588 415.228C328.813 414.443 328.585 413.634 328.904 412.802C329.047 412.43 329.249 412.142 329.51 411.938C329.778 411.716 330.067 411.573 330.376 411.509C330.762 411.982 331.236 412.468 331.796 412.968C332.38 413.456 333.097 413.863 333.947 414.19C335.239 414.686 336.028 414.562 336.313 413.818C336.436 413.5 336.416 413.208 336.254 412.942C336.098 412.659 335.772 412.372 335.275 412.079L334.262 411.386C332.961 410.541 332.075 409.673 331.605 408.782C331.159 407.879 331.147 406.879 331.568 405.782C332.044 404.543 332.917 403.751 334.187 403.405C335.481 403.049 336.978 403.197 338.678 403.85C339.527 404.176 340.263 404.56 340.886 405.002C341.533 405.433 341.992 405.904 342.263 406.414C342.541 406.907 342.582 407.41 342.385 407.923C342.249 408.277 342.059 408.56 341.815 408.771C341.572 408.982 341.301 409.132 341.003 409.221C340.856 409.022 340.606 408.774 340.253 408.476C339.918 408.185 339.528 407.903 339.084 407.631C338.658 407.366 338.241 407.155 337.834 406.999C337.197 406.754 336.667 406.653 336.245 406.694C335.83 406.717 335.555 406.906 335.419 407.26C335.33 407.49 335.35 407.731 335.476 407.983C335.628 408.224 335.94 408.496 336.412 408.799L337.372 409.472C338.812 410.431 339.748 411.379 340.18 412.317C340.619 413.237 340.635 414.228 340.227 415.29Z" fill="#130C18"/>
<path d="M341.162 417.721C341.413 417.066 341.827 416.595 342.404 416.309C343.006 416.012 343.652 415.996 344.342 416.261C345.05 416.532 345.52 416.977 345.75 417.593C346.005 418.199 346.007 418.829 345.755 419.484C345.504 420.139 345.077 420.615 344.476 420.912C343.899 421.199 343.256 421.206 342.548 420.934C341.858 420.669 341.385 420.234 341.13 419.628C340.9 419.011 340.91 418.376 341.162 417.721ZM353.392 421.715C353.799 421.871 354.211 421.989 354.628 422.067C355.069 422.135 355.399 422.15 355.616 422.112L356.595 419.562L354.283 418.919C353.667 418.723 353.142 418.664 352.706 418.74C352.271 418.817 351.971 419.067 351.808 419.492C351.645 419.917 351.681 420.327 351.915 420.721C352.156 421.098 352.649 421.429 353.392 421.715ZM357.31 411.032C359.151 411.739 360.471 412.692 361.269 413.893C362.075 415.075 362.168 416.472 361.55 418.083L359.236 424.11C359.066 424.553 358.812 424.872 358.473 425.067C358.141 425.244 357.761 425.362 357.332 425.421C356.678 425.535 355.919 425.528 355.055 425.4C354.201 425.295 353.27 425.05 352.261 424.662C350.455 423.969 349.148 423.061 348.34 421.939C347.55 420.823 347.423 419.566 347.96 418.167C348.422 416.964 349.147 416.186 350.135 415.834C351.13 415.464 352.39 415.491 353.913 415.913L357.588 416.897L357.71 416.578C357.941 415.976 357.868 415.451 357.492 415.002C357.134 414.56 356.521 414.172 355.654 413.839C354.981 413.581 354.287 413.406 353.571 413.314C352.872 413.228 352.225 413.193 351.63 413.209C351.472 412.986 351.368 412.702 351.318 412.357C351.291 412.002 351.34 411.665 351.462 411.347C351.747 410.603 352.362 410.219 353.305 410.196C353.9 410.18 354.551 410.257 355.257 410.427C355.989 410.586 356.673 410.788 357.31 411.032ZM367.518 411.203C367.749 410.601 368.146 410.175 368.709 409.924C369.291 409.68 369.9 409.68 370.537 409.925C371.192 410.176 371.645 410.584 371.896 411.147C372.147 411.711 372.157 412.293 371.926 412.895C371.701 413.48 371.304 413.906 370.734 414.174C370.164 414.443 369.551 414.452 368.896 414.2C368.259 413.956 367.809 413.539 367.547 412.951C367.303 412.37 367.294 411.787 367.518 411.203ZM364.148 420.695L368.078 422.204L365.398 429.187C365.218 429.179 364.962 429.132 364.63 429.045C364.291 428.975 363.935 428.87 363.564 428.727C362.802 428.435 362.296 428.088 362.044 427.686C361.809 427.292 361.824 426.749 362.089 426.059L364.148 420.695ZM367.293 424.248L363.364 422.74L366.289 415.119C366.469 415.127 366.728 415.165 367.067 415.235C367.424 415.311 367.788 415.42 368.16 415.563C368.921 415.855 369.419 416.198 369.653 416.593C369.894 416.97 369.876 417.521 369.597 418.247L367.293 424.248Z" fill="#8840B5"/>
</g>
<defs>
<linearGradient id="paint0_linear_471_28" x1="331.073" y1="0.969086" x2="331.073" y2="712.125" gradientUnits="userSpaceOnUse">
<stop stop-color="#B182CE" stop-opacity="0.5"/>
<stop offset="0.5" stop-color="#B182CE"/>
<stop offset="1" stop-color="#B182CE" stop-opacity="0.75"/>
</linearGradient>
<clipPath id="clip0_471_28">
<rect width="648.823" height="711.156" fill="white" transform="translate(0 0.969086)"/>
</clipPath>
</defs>
</svg>
