<svg width="450" height="451" viewBox="0 0 450 451" fill="none" xmlns="http://www.w3.org/2000/svg">
<path d="M299.318 391.511C326.296 370.051 350.822 350.342 378.326 324.94C405.83 299.539 436.4 268.443 444.284 232.793C452.255 197.055 437.714 156.762 406.444 137.755C375.261 118.835 327.347 121.2 292.398 101.054C257.536 80.9073 235.638 38.2496 204.805 22.8333C174.06 7.41702 134.293 19.242 96.3657 37.6365C58.4381 56.0309 22.35 80.9948 9.29865 115.331C-3.66506 149.755 6.49569 193.551 21.2988 228.764C36.102 264.063 55.46 290.779 74.0296 315.568C92.5992 340.357 110.205 363.218 133.417 386.781C156.542 410.343 185.097 434.606 214.09 435.307C243.083 435.92 272.427 412.883 299.318 391.511Z" fill="url(#paint0_linear_532_11)"/>
<path d="M413.068 415.27C399.217 415.923 385.145 406.869 379.918 393.271C374.541 379.762 378.009 361.71 388.825 352.51C399.642 343.31 417.774 343.083 429.976 351.61C442.093 359.983 448.396 377.143 444.574 390.793C440.868 404.477 427.036 414.65 413.068 415.27Z" fill="#B182CE" fill-opacity="0.6"/>
<path d="M324.391 450.073C317.041 450.345 309.623 446.557 307.164 440.128C304.673 433.82 307.108 424.992 312.872 420.231C318.518 415.438 327.526 414.591 333.499 418.623C339.589 422.688 342.911 431.577 340.867 438.43C338.855 445.161 331.657 449.647 324.391 450.073Z" fill="#B182CE" fill-opacity="0.7"/>
<path d="M308.751 37.132C316.041 40.1767 321.507 49.0465 320.854 57.6253C320.101 66.2105 313.228 74.5047 305.163 76.2756C297.05 78.1018 287.699 73.4601 283.892 66.213C280.038 59.0212 281.628 49.2305 287.01 43.0215C292.339 36.7635 301.407 34.0384 308.751 37.132Z" fill="#B182CE" fill-opacity="0.4"/>
<path d="M376.306 87.1411C382.171 89.9623 386.07 96.2085 385.63 102.417C385.19 108.625 380.411 114.796 374.591 116.162C368.718 117.479 361.905 113.984 358.427 108.026C354.901 102.123 354.81 93.7483 358.683 89.3115C362.503 84.8257 370.441 84.3199 376.306 87.1411Z" fill="#B182CE" fill-opacity="0.5"/>
<path d="M346.77 1.18953C350.819 3.13137 353.348 7.52689 353.069 12.206C352.844 16.9342 349.759 21.8969 345.83 22.8281C341.901 23.7593 337.075 20.61 334.593 16.1591C332.111 11.7082 331.973 5.95571 334.661 2.79905C337.302 -0.302233 342.769 -0.807683 346.77 1.18953Z" fill="#B182CE" fill-opacity="0.3"/>
<defs>
<linearGradient id="paint0_linear_532_11" x1="224.893" y1="15.7245" x2="224.893" y2="435.319" gradientUnits="userSpaceOnUse">
<stop stop-color="#B182CE" stop-opacity="0.3"/>
<stop offset="0.5" stop-color="#B182CE"/>
<stop offset="1" stop-color="#B182CE" stop-opacity="0.75"/>
</linearGradient>
</defs>
</svg>
