<svg width="451" height="450" viewBox="0 0 451 450" fill="none" xmlns="http://www.w3.org/2000/svg">
<path d="M301.044 361.879C332.695 358.294 369.942 349.638 400.631 327.08C431.32 304.522 455.452 267.888 449.331 234.838C443.298 201.788 407.101 172.148 375.188 151.776C343.275 131.317 315.646 119.95 290.028 93.3706C264.41 66.7908 240.803 24.9102 208.889 10.4837C176.976 -3.85539 136.757 9.2596 104.407 31.9923C72.1436 54.725 47.7497 87.0754 31.3997 121.874C15.137 156.76 6.83086 194.006 2.72149 233.701C-1.47531 273.483 -1.56274 315.539 13.2135 353.048C27.9897 390.557 57.7171 423.344 94.1768 424.219C130.637 425.005 173.916 393.704 208.627 378.841C243.251 363.977 269.393 365.376 301.044 361.879Z" fill="url(#paint0_linear_532_3)"/>
<path d="M354.882 421.673C350.847 407.655 358.339 391.431 370.794 382.417C383.249 373.534 400.799 371.863 411.654 379.738C422.509 387.482 426.8 404.906 422.191 419.563C417.452 434.352 403.681 446.637 389.146 446.874C374.48 447.241 358.917 435.56 354.882 421.673Z" fill="#B182CE" fill-opacity="0.6"/>
<path d="M245.693 410.927C243.22 402.673 246.248 393.119 252.934 388.286C259.621 383.322 269.835 383.208 276.897 388.197C283.96 393.185 287.871 403.274 285.238 411.519C282.735 419.764 273.558 426.296 265.047 426.15C256.405 426.004 248.298 419.181 245.693 410.927Z" fill="#B182CE" fill-opacity="0.7"/>
<path d="M302.093 54.723C291.909 50.9142 284.835 40.4228 285.081 30.1041C285.328 19.7855 292.835 9.71724 302.313 6.88275C311.809 4.18465 323.256 8.5839 329.695 17.495C336.116 26.2697 337.529 39.5563 331.55 47.6072C325.571 55.658 312.278 58.5319 302.093 54.723Z" fill="#B182CE" fill-opacity="0.3"/>
<path d="M354.517 110.706C349.56 109.026 346.005 103.401 346.034 97.5595C346.122 91.6406 349.599 85.6024 354.415 84.2439C359.154 82.8267 365.114 86.2444 368.265 90.9528C371.434 95.7975 371.811 102.069 368.831 106.163C365.792 110.334 359.415 112.464 354.517 110.706Z" fill="#B182CE" fill-opacity="0.5"/>
<path d="M426.908 87.8769C420.785 85.8019 416.344 78.2832 416.576 70.8852C416.671 63.506 421.439 56.2474 427.523 54.5059C433.548 52.8419 440.889 56.695 444.657 62.3605C448.426 68.026 448.564 75.5816 444.661 81.0531C440.896 86.5058 433.031 89.952 426.908 87.8769Z" fill="#B182CE" fill-opacity="0.4"/>
<defs>
<linearGradient id="paint0_linear_532_3" x1="225.286" y1="424.233" x2="225.286" y2="4.50009" gradientUnits="userSpaceOnUse">
<stop stop-color="#B182CE" stop-opacity="0.75"/>
<stop offset="0.5" stop-color="#B182CE"/>
<stop offset="1" stop-color="#B182CE" stop-opacity="0.3"/>
</linearGradient>
</defs>
</svg>
