<svg width="465" height="450" viewBox="0 0 465 450" fill="none" xmlns="http://www.w3.org/2000/svg">
<path d="M159.422 83.8063C132.549 107.32 102.862 118.033 73.4468 138.823C44.032 159.704 14.8895 190.662 14.0724 222.165C13.2553 253.668 40.8544 285.534 69.7246 307.414C98.504 329.293 128.554 341.186 156.244 361.069C183.843 380.951 209.173 408.913 243.672 424.892C278.171 440.87 321.839 444.955 361.15 431.791C400.46 418.627 435.413 388.214 452.299 350.356C469.095 312.498 468.006 267.104 448.305 233.059C428.695 199.014 390.474 176.318 367.959 148.265C345.444 120.212 338.453 86.8022 318.843 59.1123C299.142 31.4224 266.822 9.45199 238.588 16.7149C210.353 23.8871 186.295 60.2925 159.422 83.8063Z" fill="url(#paint0_linear_532_7)"/>
<path d="M96.3512 381.202C105.624 370.911 123.462 367.558 135.689 373.833C147.968 379.931 154.574 395.542 152.675 410.591C150.89 425.578 140.715 439.939 128.281 442.272C115.731 444.669 100.87 435.215 93.7045 421.848C86.5385 408.48 87.1934 391.43 96.3512 381.202Z" fill="#B182CE" fill-opacity="0.7"/>
<path d="M7.12086 336.182C14.4779 328.258 27.3085 325.511 36.9537 330.04C46.5459 334.473 52.856 346.233 51.5421 357.388C50.2812 368.64 41.3962 379.285 30.8093 381.307C20.1695 383.232 7.97735 376.576 2.87595 366.794C-2.2784 356.916 -0.289094 344.009 7.12086 336.182Z" fill="#B182CE" fill-opacity="0.6"/>
<path d="M31.8299 123.373C24.0279 119.829 17.563 111.376 18.6612 103.704C19.6529 96.0323 28.1541 89.088 37.3986 87.6173C46.6432 86.1466 56.6301 90.0431 60.2079 97.0329C63.6793 104.024 60.7942 114.054 54.8359 119.804C48.8238 125.501 39.6319 126.918 31.8299 123.373Z" fill="#B182CE" fill-opacity="0.5"/>
<path d="M73.9743 28.5757C69.9117 26.5921 67.3634 21.5613 68.0113 16.9259C68.712 12.2369 72.5563 7.99708 77.1775 7.15532C81.7988 6.31356 87.0917 8.97728 89.1526 13.1082C91.2663 17.1853 90.0953 22.7834 86.7213 26.1142C83.4538 29.444 77.9833 30.5066 73.9743 28.5757Z" fill="#B182CE" fill-opacity="0.3"/>
<path d="M109.839 87.1481C105.99 85.2689 103.493 80.078 104.303 75.7071C105.061 71.39 109.018 67.8941 113.799 66.9976C118.525 66.0484 124.022 67.7524 125.919 71.406C127.868 75.0058 126.165 80.6089 122.633 84.1008C119.101 87.5928 113.741 89.08 109.839 87.1481Z" fill="#B182CE" fill-opacity="0.4"/>
<defs>
<linearGradient id="paint0_linear_532_7" x1="239.055" y1="15.3127" x2="239.055" y2="439.654" gradientUnits="userSpaceOnUse">
<stop stop-color="#B182CE" stop-opacity="0.3"/>
<stop offset="0.5" stop-color="#B182CE"/>
<stop offset="1" stop-color="#B182CE" stop-opacity="0.75"/>
</linearGradient>
</defs>
</svg>
